<svg xmlns="http://www.w3.org/2000/svg" viewBox="0 0 128 128" width="128" height="128"><path d="M108.8 0C119.404 0 128 8.59633 128 19.2002V108.8C128 119.404 119.404 128 108.8 128H19.2002C8.59633 128 0 119.404 0 108.8V19.2002C0 8.59633 8.59633 0 19.2002 0H108.8ZM78.9336 31.2715C77.353 31.2715 76.0715 32.5523 76.0713 34.1328V39.6709H64C60.8729 39.6709 58.338 42.206 58.3379 45.333V60.2041H50.0625V54.667C50.0625 53.0863 48.7808 51.8049 47.2002 51.8047H30.3994C28.8189 51.8049 27.5381 53.0864 27.5381 54.667V73.333C27.5381 74.9136 28.8189 76.1951 30.3994 76.1953H47.2002C48.7808 76.1951 50.0625 74.9137 50.0625 73.333V67.7959H58.3379V82.667C58.3381 85.794 60.873 88.3291 64 88.3291H76.0713V93.8662C76.0713 95.447 77.3528 96.7285 78.9336 96.7285H95.7334C97.3141 96.7284 98.5957 95.4469 98.5957 93.8662V75.2002C98.5957 73.6195 97.3141 72.338 95.7334 72.3379H78.9336C77.3528 72.3379 76.0713 73.6194 76.0713 75.2002V80.7373H65.9287V47.2617H76.0713V52.7998C76.0713 54.3806 77.3528 55.6621 78.9336 55.6621H95.7334C97.3141 55.662 98.5957 54.3805 98.5957 52.7998V34.1328C98.5955 32.5523 97.3139 31.2716 95.7334 31.2715H78.9336Z" fill="#5B8FF9"/></svg>
